
<svg version="1.1" xmlns="http://www.w3.org/2000/svg" xmlns:xlink="http://www.w3.org/1999/xlink" x="0px" y="0px"
     viewBox="0 0 60 20" enable-background="new 0 0 60 20" xml:space="preserve">
<rect x="145.3208008" fill="#183D6E" width="60" height="20"/>
<rect x="73.5411377" fill="#183D6E" width="60" height="20"/>
<rect fill="#183D6E" width="60" height="20"/>
<g>
    <path fill="#FFFFFF" d="M26.6523438,11.5280762c0.0512695,0.3618164,0.1518555,0.6318359,0.3017578,0.8110352
		c0.2739258,0.3256836,0.7436523,0.4887695,1.4091797,0.4887695c0.3984375,0,0.722168-0.0429688,0.9707031-0.1289062
		c0.4716797-0.1645508,0.7075195-0.4707031,0.7075195-0.918457c0-0.2612305-0.1157227-0.4638672-0.3466797-0.6069336
		c-0.230957-0.1396484-0.597168-0.2631836-1.0991211-0.3706055l-0.8569336-0.1879883
		c-0.8427734-0.1860352-1.4213867-0.3886719-1.7363281-0.6069336c-0.5336914-0.3652344-0.800293-0.9365234-0.800293-1.7133789
		c0-0.7089844,0.2607422-1.2978516,0.7827148-1.7670898s1.2890625-0.7036133,2.300293-0.7036133
		c0.8442383,0,1.5649414,0.2211914,2.1611328,0.6635742c0.5961914,0.4418945,0.9091797,1.0839844,0.9379883,1.925293h-1.5898438
		c-0.0292969-0.4760742-0.2421875-0.8144531-0.6386719-1.0151367c-0.2646484-0.1323242-0.5927734-0.1987305-0.9858398-0.1987305
		c-0.4365234,0-0.7856445,0.0859375-1.0458984,0.2578125c-0.2607422,0.171875-0.3911133,0.4116211-0.3911133,0.7197266
		c0,0.2827148,0.128418,0.4941406,0.3852539,0.6337891c0.1655273,0.0932617,0.5161133,0.2021484,1.0522461,0.3276367
		l1.3891602,0.3276367c0.6088867,0.1430664,1.0654297,0.3349609,1.3691406,0.574707
		c0.472168,0.3725586,0.7080078,0.9111328,0.7080078,1.6166992c0,0.7231445-0.2797852,1.3237305-0.8388672,1.8022461
		c-0.559082,0.4775391-1.3491211,0.7167969-2.3696289,0.7167969c-1.0424805,0-1.8623047-0.2353516-2.4594727-0.7060547
		c-0.597168-0.4711914-0.8955078-1.1181641-0.8955078-1.9418945H26.6523438z"/>
	<path fill="#FFFFFF" d="M36.8808594,8.1496582c0.2939453,0.1254883,0.5356445,0.3173828,0.7246094,0.5751953
		c0.1606445,0.21875,0.2583008,0.4438477,0.2939453,0.6748047c0.0356445,0.2314453,0.0537109,0.6083984,0.0537109,1.1318359
		v3.4404297h-1.5629883v-3.5649414c0-0.3154297-0.0532227-0.5703125-0.1601562-0.7636719
		c-0.1386719-0.2724609-0.4013672-0.4086914-0.7890625-0.4086914c-0.4013672,0-0.7060547,0.1352539-0.9140625,0.40625
		c-0.2080078,0.2705078-0.3120117,0.6567383-0.3120117,1.1586914v3.1723633H32.684082V6.0817871h1.5307617v2.7929688
		c0.2211914-0.340332,0.4770508-0.5776367,0.7675781-0.7114258c0.2905273-0.1347656,0.5961914-0.2016602,0.9169922-0.2016602
		C36.2597656,7.9616699,36.5869141,8.0246582,36.8808594,8.1496582z"/>
	<path fill="#FFFFFF" d="M41.7114258,10.4108887c0.284668-0.0356445,0.4887695-0.0805664,0.6113281-0.1342773
		c0.2202148-0.0932617,0.3300781-0.2382812,0.3300781-0.4350586c0-0.2397461-0.0844727-0.4057617-0.253418-0.496582
		c-0.168457-0.0917969-0.4165039-0.137207-0.7426758-0.137207c-0.3666992,0-0.6264648,0.0893555-0.7788086,0.2685547
		c-0.1088867,0.1323242-0.1816406,0.3115234-0.2177734,0.5371094h-1.4770508
		c0.0322266-0.512207,0.1762695-0.9326172,0.4316406-1.262207c0.40625-0.515625,1.1040039-0.7734375,2.0927734-0.7734375
		c0.644043,0,1.2158203,0.1269531,1.715332,0.3813477c0.5,0.2543945,0.75,0.7338867,0.75,1.4394531v2.6855469
		c0,0.1860352,0.003418,0.4116211,0.0107422,0.6767578c0.0107422,0.2006836,0.0410156,0.3364258,0.0913086,0.4082031
		s0.1254883,0.1308594,0.2255859,0.1772461v0.2255859h-1.6650391c-0.0463867-0.1181641-0.0786133-0.2290039-0.0966797-0.3330078
		s-0.0322266-0.222168-0.0429688-0.3544922c-0.2124023,0.2290039-0.4575195,0.4243164-0.7348633,0.5854492
		c-0.3310547,0.1899414-0.7060547,0.284668-1.1235352,0.284668c-0.5332031,0-0.9736328-0.1513672-1.3208008-0.4541016
		c-0.3476562-0.3022461-0.5214844-0.730957-0.5214844-1.2861328c0-0.7197266,0.2797852-1.2407227,0.8388672-1.5629883
		c0.3066406-0.175293,0.7573242-0.3007812,1.3525391-0.3759766L41.7114258,10.4108887z M42.6474609,11.1252441
		c-0.0981445,0.0610352-0.1972656,0.1103516-0.296875,0.1474609c-0.0996094,0.0380859-0.2368164,0.0727539-0.4111328,0.1049805
		l-0.3481445,0.0644531c-0.3266602,0.0571289-0.5615234,0.1269531-0.7036133,0.2094727
		c-0.2412109,0.1396484-0.3618164,0.3564453-0.3618164,0.6499023c0,0.2612305,0.0737305,0.4501953,0.2207031,0.5668945
		c0.1474609,0.1162109,0.3266602,0.1743164,0.5375977,0.1743164c0.3344727,0,0.6425781-0.0966797,0.9243164-0.2900391
		s0.4277344-0.5458984,0.4389648-1.0581055V11.1252441z"/>
	<path fill="#FFFFFF" d="M48.7626953,7.9807129c0.0195312,0.0014648,0.0634766,0.0043945,0.1313477,0.0078125v1.5683594
		c-0.0966797-0.0107422-0.1826172-0.0180664-0.2578125-0.0214844S48.5,9.5300293,48.4536133,9.5300293
		c-0.6157227,0-1.0292969,0.2006836-1.2407227,0.6015625c-0.1181641,0.2255859-0.1772461,0.5727539-0.1772461,1.0419922v2.7983398
		h-1.5415039V8.1174316h1.4609375v1.0205078c0.2363281-0.3901367,0.4423828-0.6572266,0.6176758-0.800293
		c0.2866211-0.2397461,0.6586914-0.3598633,1.1171875-0.3598633C48.71875,7.9777832,48.7426758,7.9787598,48.7626953,7.9807129z"/>
	<path fill="#FFFFFF" d="M53.605957,8.236084c0.4082031,0.1831055,0.7456055,0.4716797,1.0117188,0.8662109
		c0.2397461,0.3476562,0.3955078,0.7509766,0.4663086,1.2099609c0.0415039,0.269043,0.0581055,0.65625,0.0507812,1.1621094
		h-4.2641602c0.0239258,0.5874023,0.2280273,0.9990234,0.6123047,1.2353516
		c0.2338867,0.1469727,0.5151367,0.2202148,0.84375,0.2202148c0.3491211,0,0.6323242-0.0893555,0.8500977-0.2685547
		c0.1186523-0.0966797,0.2241211-0.230957,0.3149414-0.402832h1.5629883
		c-0.0410156,0.347168-0.2304688,0.7001953-0.5673828,1.0581055c-0.5244141,0.5693359-1.2587891,0.8540039-2.2026367,0.8540039
		c-0.7792969,0-1.4667969-0.2402344-2.0620117-0.7202148c-0.5957031-0.4804688-0.8935547-1.2617188-0.8935547-2.34375
		c0-1.0141602,0.269043-1.7919922,0.8066406-2.3330078c0.5375977-0.5415039,1.2353516-0.8120117,2.0932617-0.8120117
		C52.7387695,7.9616699,53.1977539,8.0529785,53.605957,8.236084z M51.315918,9.5583496
		c-0.2163086,0.2231445-0.3520508,0.5249023-0.4077148,0.90625h2.637207c-0.027832-0.40625-0.1635742-0.7148438-0.4077148-0.925293
		c-0.2441406-0.2099609-0.546875-0.3154297-0.9077148-0.3154297C51.8369141,9.223877,51.5322266,9.3352051,51.315918,9.5583496z"/>
</g>
<g>
	<path fill="#FFFFFF" d="M171.8540039,11.5280762c0.0512695,0.3618164,0.1518555,0.6318359,0.3017578,0.8110352
		c0.2739258,0.3256836,0.7436523,0.4887695,1.4091797,0.4887695c0.3984375,0,0.722168-0.0429688,0.9707031-0.1289062
		c0.4716797-0.1645508,0.7075195-0.4707031,0.7075195-0.918457c0-0.2612305-0.1157227-0.4638672-0.3466797-0.6069336
		c-0.230957-0.1396484-0.597168-0.2631836-1.0991211-0.3706055l-0.8569336-0.1879883
		c-0.8427734-0.1860352-1.4213867-0.3886719-1.7363281-0.6069336c-0.5336914-0.3652344-0.800293-0.9365234-0.800293-1.7133789
		c0-0.7089844,0.2607422-1.2978516,0.7827148-1.7670898s1.2890625-0.7036133,2.300293-0.7036133
		c0.8442383,0,1.5649414,0.2211914,2.1611328,0.6635742c0.5961914,0.4418945,0.9091797,1.0839844,0.9379883,1.925293h-1.5898438
		c-0.0292969-0.4760742-0.2421875-0.8144531-0.6386719-1.0151367c-0.2646484-0.1323242-0.5927734-0.1987305-0.9858398-0.1987305
		c-0.4365234,0-0.7856445,0.0859375-1.0458984,0.2578125c-0.2607422,0.171875-0.3911133,0.4116211-0.3911133,0.7197266
		c0,0.2827148,0.128418,0.4941406,0.3852539,0.6337891c0.1655273,0.0932617,0.5161133,0.2021484,1.0522461,0.3276367
		l1.3891602,0.3276367c0.6088867,0.1430664,1.0654297,0.3349609,1.3691406,0.574707
		c0.472168,0.3725586,0.7080078,0.9111328,0.7080078,1.6166992c0,0.7231445-0.2797852,1.3237305-0.8388672,1.8022461
		c-0.559082,0.4775391-1.3491211,0.7167969-2.3696289,0.7167969c-1.0424805,0-1.8623047-0.2353516-2.4594727-0.7060547
		c-0.597168-0.4711914-0.8955078-1.1181641-0.8955078-1.9418945H171.8540039z"/>
	<path fill="#FFFFFF" d="M182.0825195,8.1496582c0.2939453,0.1254883,0.5356445,0.3173828,0.7246094,0.5751953
		c0.1606445,0.21875,0.2583008,0.4438477,0.2939453,0.6748047c0.0356445,0.2314453,0.0537109,0.6083984,0.0537109,1.1318359
		v3.4404297h-1.5629883v-3.5649414c0-0.3154297-0.0532227-0.5703125-0.1601562-0.7636719
		c-0.1386719-0.2724609-0.4013672-0.4086914-0.7890625-0.4086914c-0.4013672,0-0.7060547,0.1352539-0.9140625,0.40625
		c-0.2080078,0.2705078-0.3120117,0.6567383-0.3120117,1.1586914v3.1723633h-1.5307617V6.0817871h1.5307617v2.7929688
		c0.2211914-0.340332,0.4770508-0.5776367,0.7675781-0.7114258c0.2905273-0.1347656,0.5961914-0.2016602,0.9169922-0.2016602
		C181.4614258,7.9616699,181.7885742,8.0246582,182.0825195,8.1496582z"/>
	<path fill="#FFFFFF" d="M186.9130859,10.4108887c0.284668-0.0356445,0.4887695-0.0805664,0.6113281-0.1342773
		c0.2202148-0.0932617,0.3300781-0.2382812,0.3300781-0.4350586c0-0.2397461-0.0844727-0.4057617-0.253418-0.496582
		c-0.168457-0.0917969-0.4165039-0.137207-0.7426758-0.137207c-0.3666992,0-0.6264648,0.0893555-0.7788086,0.2685547
		c-0.1088867,0.1323242-0.1816406,0.3115234-0.2177734,0.5371094h-1.4770508
		c0.0322266-0.512207,0.1762695-0.9326172,0.4316406-1.262207c0.40625-0.515625,1.1040039-0.7734375,2.0927734-0.7734375
		c0.644043,0,1.2158203,0.1269531,1.715332,0.3813477c0.5,0.2543945,0.75,0.7338867,0.75,1.4394531v2.6855469
		c0,0.1860352,0.003418,0.4116211,0.0107422,0.6767578c0.0107422,0.2006836,0.0410156,0.3364258,0.0913086,0.4082031
		s0.1254883,0.1308594,0.2255859,0.1772461v0.2255859h-1.6650391c-0.0463867-0.1181641-0.0786133-0.2290039-0.0966797-0.3330078
		s-0.0322266-0.222168-0.0429688-0.3544922c-0.2124023,0.2290039-0.4575195,0.4243164-0.7348633,0.5854492
		c-0.3310547,0.1899414-0.7060547,0.284668-1.1235352,0.284668c-0.5332031,0-0.9736328-0.1513672-1.3208008-0.4541016
		c-0.3476562-0.3022461-0.5214844-0.730957-0.5214844-1.2861328c0-0.7197266,0.2797852-1.2407227,0.8388672-1.5629883
		c0.3066406-0.175293,0.7573242-0.3007812,1.3525391-0.3759766L186.9130859,10.4108887z M187.8491211,11.1252441
		c-0.0981445,0.0610352-0.1972656,0.1103516-0.296875,0.1474609c-0.0996094,0.0380859-0.2368164,0.0727539-0.4111328,0.1049805
		l-0.3481445,0.0644531c-0.3266602,0.0571289-0.5615234,0.1269531-0.7036133,0.2094727
		c-0.2412109,0.1396484-0.3618164,0.3564453-0.3618164,0.6499023c0,0.2612305,0.0737305,0.4501953,0.2207031,0.5668945
		c0.1474609,0.1162109,0.3266602,0.1743164,0.5375977,0.1743164c0.3344727,0,0.6425781-0.0966797,0.9243164-0.2900391
		s0.4277344-0.5458984,0.4389648-1.0581055V11.1252441z"/>
	<path fill="#FFFFFF" d="M193.9643555,7.9807129c0.0195312,0.0014648,0.0634766,0.0043945,0.1313477,0.0078125v1.5683594
		c-0.0966797-0.0107422-0.1826172-0.0180664-0.2578125-0.0214844s-0.1362305-0.0053711-0.1826172-0.0053711
		c-0.6157227,0-1.0292969,0.2006836-1.2407227,0.6015625c-0.1181641,0.2255859-0.1772461,0.5727539-0.1772461,1.0419922v2.7983398
		h-1.5415039V8.1174316h1.4609375v1.0205078c0.2363281-0.3901367,0.4423828-0.6572266,0.6176758-0.800293
		c0.2866211-0.2397461,0.6586914-0.3598633,1.1171875-0.3598633C193.9204102,7.9777832,193.9443359,7.9787598,193.9643555,7.9807129
		z"/>
	<path fill="#FFFFFF" d="M198.8076172,8.236084c0.4082031,0.1831055,0.7456055,0.4716797,1.0117188,0.8662109
		c0.2397461,0.3476562,0.3955078,0.7509766,0.4663086,1.2099609c0.0415039,0.269043,0.0581055,0.65625,0.0507812,1.1621094
		h-4.2641602c0.0239258,0.5874023,0.2280273,0.9990234,0.6123047,1.2353516
		c0.2338867,0.1469727,0.5151367,0.2202148,0.84375,0.2202148c0.3491211,0,0.6323242-0.0893555,0.8500977-0.2685547
		c0.1186523-0.0966797,0.2241211-0.230957,0.3149414-0.402832h1.5629883
		c-0.0410156,0.347168-0.2304688,0.7001953-0.5673828,1.0581055c-0.5244141,0.5693359-1.2587891,0.8540039-2.2026367,0.8540039
		c-0.7792969,0-1.4667969-0.2402344-2.0620117-0.7202148c-0.5957031-0.4804688-0.8935547-1.2617188-0.8935547-2.34375
		c0-1.0141602,0.269043-1.7919922,0.8066406-2.3330078c0.5375977-0.5415039,1.2353516-0.8120117,2.0932617-0.8120117
		C197.9404297,7.9616699,198.3994141,8.0529785,198.8076172,8.236084z M196.5175781,9.5583496
		c-0.2163086,0.2231445-0.3520508,0.5249023-0.4077148,0.90625h2.637207c-0.027832-0.40625-0.1635742-0.7148438-0.4077148-0.925293
		c-0.2441406-0.2099609-0.546875-0.3154297-0.9077148-0.3154297C197.0385742,9.223877,196.7338867,9.3352051,196.5175781,9.5583496z
		"/>
</g>
<g>
	<path fill="#FFFFFF" d="M104.9736328,5.9421387v1.4018555h-2.3686523v6.5151367h-1.6650391V7.3439941h-2.3793945V5.9421387
		H104.9736328z"/>
	<path fill="#FFFFFF" d="M107.7666016,8.0046387h1.5522461l0.8916016,4.2163086l0.9130859-4.2163086h1.5952148l-1.6972656,5.8544922
		h-1.5737305l-0.918457-4.2646484l-0.9291992,4.2646484h-1.5898438l-1.6435547-5.8544922h1.6435547l0.9130859,4.2001953
		L107.7666016,8.0046387z"/>
	<path fill="#FFFFFF" d="M117.3769531,8.123291c0.4082031,0.1831055,0.7456055,0.4716797,1.0117188,0.8662109
		c0.2397461,0.3476562,0.3955078,0.7509766,0.4663086,1.2099609c0.0415039,0.269043,0.0581055,0.65625,0.0507812,1.1621094
		h-4.2641602c0.0239258,0.5874023,0.2280273,0.9990234,0.6123047,1.2353516
		c0.2338867,0.1469727,0.5151367,0.2202148,0.84375,0.2202148c0.3491211,0,0.6323242-0.0893555,0.8500977-0.2685547
		c0.1186523-0.0966797,0.2241211-0.230957,0.3149414-0.402832h1.5629883
		c-0.0410156,0.347168-0.2304688,0.7001953-0.5673828,1.0581055c-0.5244141,0.5693359-1.2587891,0.8540039-2.2026367,0.8540039
		c-0.7792969,0-1.4667969-0.2402344-2.0620117-0.7202148c-0.5957031-0.4804688-0.8935547-1.2617188-0.8935547-2.34375
		c0-1.0141602,0.269043-1.7919922,0.8066406-2.3330078C114.4443359,8.1193848,115.1420898,7.848877,116,7.848877
		C116.5097656,7.848877,116.96875,7.9401855,117.3769531,8.123291z M115.0869141,9.4455566
		c-0.2163086,0.2231445-0.3520508,0.5249023-0.4077148,0.90625h2.637207c-0.027832-0.40625-0.1635742-0.7148438-0.4077148-0.925293
		c-0.2441406-0.2099609-0.546875-0.3154297-0.9077148-0.3154297C115.6079102,9.111084,115.3032227,9.2224121,115.0869141,9.4455566z
		"/>
	<path fill="#FFFFFF" d="M123.4946289,8.123291c0.4082031,0.1831055,0.7456055,0.4716797,1.0117188,0.8662109
		c0.2397461,0.3476562,0.3955078,0.7509766,0.4663086,1.2099609c0.0415039,0.269043,0.0581055,0.65625,0.0507812,1.1621094
		h-4.2641602c0.0239258,0.5874023,0.2280273,0.9990234,0.6123047,1.2353516
		c0.2338867,0.1469727,0.5151367,0.2202148,0.84375,0.2202148c0.3491211,0,0.6323242-0.0893555,0.8500977-0.2685547
		c0.1186523-0.0966797,0.2241211-0.230957,0.3149414-0.402832h1.5629883
		c-0.0410156,0.347168-0.2304688,0.7001953-0.5673828,1.0581055c-0.5244141,0.5693359-1.2587891,0.8540039-2.2026367,0.8540039
		c-0.7792969,0-1.4667969-0.2402344-2.0620117-0.7202148c-0.5957031-0.4804688-0.8935547-1.2617188-0.8935547-2.34375
		c0-1.0141602,0.269043-1.7919922,0.8066406-2.3330078c0.5375977-0.5415039,1.2353516-0.8120117,2.0932617-0.8120117
		C122.6274414,7.848877,123.0864258,7.9401855,123.4946289,8.123291z M121.2045898,9.4455566
		c-0.2163086,0.2231445-0.3520508,0.5249023-0.4077148,0.90625h2.637207c-0.027832-0.40625-0.1635742-0.7148438-0.4077148-0.925293
		c-0.2441406-0.2099609-0.546875-0.3154297-0.9077148-0.3154297C121.7255859,9.111084,121.4208984,9.2224121,121.2045898,9.4455566z
		"/>
	<path fill="#FFFFFF" d="M125.1958008,9.1486816v-1.090332h0.8164062V6.4255371h1.5146484v1.6328125h0.9506836v1.090332h-0.9506836
		v3.09375c0,0.2397461,0.0302734,0.3891602,0.0913086,0.4487305c0.0610352,0.0585938,0.2470703,0.0883789,0.5585938,0.0883789
		c0.0463867,0,0.0957031-0.0009766,0.1474609-0.0024414c0.0522461-0.0019531,0.1030273-0.0048828,0.1533203-0.0083008v1.144043
		l-0.7250977,0.0268555c-0.7231445,0.0249023-1.2172852-0.1000977-1.4824219-0.3759766
		c-0.171875-0.175293-0.2578125-0.4458008-0.2578125-0.8110352V9.1486816H125.1958008z"/>
</g>
<g>
	<rect x="-0.0375125" fill="#0076B2" width="20" height="20"/>
	<g>
		<path fill="#FFFFFF" d="M4.5054874,8.0854855h2.3232341v7.4674997H4.5054874V8.0854855z M5.6677527,4.3734698
			c0.7424073,0,1.3451409,0.6028752,1.3451409,1.3458285S6.4101601,7.0651264,5.6677527,7.0651264
			c-0.7453904,0-1.3464375-0.6028752-1.3464375-1.3458281S4.9223623,4.3734698,5.6677527,4.3734698"/>
		<path fill="#FFFFFF" d="M8.2847061,8.0854855h2.2247343v1.0209532h0.0318136
			c0.3094521-0.5871563,1.0666704-1.2063594,2.1958113-1.2063594c2.3499374,0,2.7842026,1.5463271,2.7842026,3.5574374v4.0954685
			h-2.3206396v-3.6314373c0-0.8659372-0.0148754-1.9799852-1.2058907-1.9799852
			c-1.2076721,0-1.3919849,0.9437494-1.3919849,1.9180326v3.6933899H8.2847061V8.0854855z"/>
	</g>
</g>
<g>
	<rect x="73.5416336" y="0.0750251" fill="#55ACEE" width="19.5300522" height="19.5300522"/>
	<path fill="#FFFFFF" d="M88.7751236,6.4481544c-0.4024582,0.1785169-0.8348465,0.2990541-1.2887878,0.3532948
		c0.4633179-0.2777529,0.8190613-0.717454,0.986618-1.2413473c-0.4335175,0.2570333-0.9137573,0.443881-1.4248352,0.5444608
		c-0.4093094-0.43613-0.9925079-0.7085142-1.6378403-0.7085142c-1.2392578,0-2.2438965,1.0045772-2.2438965,2.2436833
		c0,0.1759686,0.0198822,0.347177,0.0580978,0.5113826c-1.86483-0.0935764-3.5181656-0.9868479-4.6248016-2.3444152
		c-0.1931839,0.3313851-0.3038177,0.7168598-0.3038177,1.1281037c0,0.7783799,0.3961258,1.4651365,0.9981689,1.8675928
		c-0.3678207-0.0116272-0.7137909-0.112649-1.0162811-0.280714c-0.0002136,0.0093832-0.0002136,0.0187664-0.0002136,0.0283031
		c0,1.087122,0.773468,1.9939575,1.799942,2.2001667c-0.1883316,0.0512667-0.3865891,0.0786848-0.5911636,0.0786848
		c-0.1445999,0-0.2851868-0.0141592-0.4222031-0.0402346c0.2855682,0.8913326,1.1142502,1.540082,2.0960922,1.5582685
		c-0.7679596,0.6018152-1.7354279,0.9604673-2.7867126,0.9604673c-0.1811066,0-0.3597031-0.0105743-0.5352097-0.0312939
		c0.9930267,0.6366949,2.1723785,1.008009,3.4395599,1.008009c4.1272202,0,6.3840866-3.4190092,6.3840866-6.3841596
		c0-0.0972991-0.0021515-0.1940036-0.0064697-0.2902651C88.093811,7.2933021,88.4742966,6.898139,88.7751236,6.4481544z"/>
</g>
<g>
	<rect x="145.3208008" fill="#3A5A99" width="20" height="20"/>
	<path fill="#FFFFFF" d="M160.3026581,4.400033h-9.9636993c-0.3414764,0-0.6181183,0.2766409-0.6181183,0.618125
		v9.9636879c0,0.3413429,0.2766418,0.618125,0.6181183,0.618125h5.36409v-4.3371582h-1.4595032V9.5724545h1.4595032V8.3259554
		c0-1.4466877,0.8834839-2.234344,2.174057-2.234344c0.6181335,0,1.149292,0.0460782,1.3041687,0.0665312v1.5118437
		l-0.8949127,0.0002971c-0.7019196,0-0.8377075,0.3335619-0.8377075,0.8230619v1.0791092h1.6737366l-0.2179108,1.6903582h-1.4558258
		v4.3371582h2.8540039c0.3413391,0,0.6181183-0.276782,0.6181183-0.618125V5.018158
		C160.9207764,4.6766739,160.6439972,4.400033,160.3026581,4.400033z"/>
</g>
</svg>
